<?xml version="1.0" encoding="UTF-8" standalone="no"?>
<!-- Created with Inkscape (http://www.inkscape.org/) -->

<svg
   width="210mm"
   height="297mm"
   viewBox="0 0 210 297"
   version="1.1"
   id="svg1"
   xml:space="preserve"
   inkscape:version="1.4 (86a8ad7, 2024-10-11)"
   xmlns:inkscape="http://www.inkscape.org/namespaces/inkscape"
   xmlns:sodipodi="http://sodipodi.sourceforge.net/DTD/sodipodi-0.dtd"
   xmlns="http://www.w3.org/2000/svg"
   xmlns:svg="http://www.w3.org/2000/svg"><sodipodi:namedview
     id="namedview1"
     pagecolor="#ffffff"
     bordercolor="#999999"
     borderopacity="1"
     inkscape:showpageshadow="2"
     inkscape:pageopacity="0"
     inkscape:pagecheckerboard="0"
     inkscape:deskcolor="#d1d1d1"
     inkscape:document-units="mm"
     inkscape:zoom="0.72604517"
     inkscape:cx="397.3582"
     inkscape:cy="561.25984"
     inkscape:window-width="1147"
     inkscape:window-height="1017"
     inkscape:window-x="-8"
     inkscape:window-y="0"
     inkscape:window-maximized="0"
     inkscape:current-layer="layer1" /><defs
     id="defs1" /><g
     inkscape:label="Capa 1"
     inkscape:groupmode="layer"
     id="layer1"><path
       style="fill:none;stroke:#5d4932;stroke-opacity:0.91666669"
       d="m 75.485294,64.999298 c 1.025779,1.000973 1.449105,1.759177 1.130555,2.84774 -2.348014,-2.016373 -4.371625,-2.442526 -5.087497,-2.534403 -1.173745,-0.150637 -2.396104,-1.200695 -3.579947,-2.40168 -0.260879,-0.264658 -0.927644,-0.496129 -1.096093,-1.518794 -0.09336,-0.56679 0.463221,-2.300938 0.55917,-2.657891 0.483647,-1.799269 0.845432,-5.988782 4.11687,-7.087704 3.856398,-1.295411 2.668915,0.04388 6.218052,-1.702931 1.32687,-0.653059 4.412349,-3.036071 6.029627,-3.923846 6.807688,-3.736952 13.404713,-5.72008 20.915269,-6.087924 11.6068,-0.568459 22.66514,1.59373 32.59767,8.2687 8.04923,5.409338 15.04499,13.523264 18.75738,22.684062 1.61956,3.996476 2.93704,8.707205 3.2723,12.909753 0.16015,2.00743 0.0995,4.94149 0.61572,6.64473 0.93134,3.07302 1.24922,4.85378 0.94068,8.92291 -0.15047,1.98448 0.68301,1.85149 1.09857,2.2782 0.89002,0.9139 1.68181,1.69538 2.63709,2.65789 M 129.37508,67.27749 c -0.27645,0.278713 -1.24072,0.691297 -1.98239,2.468041 -0.44376,1.06307 -0.4028,1.686685 -0.484,2.84774 -0.0711,1.016002 -0.22667,2.123881 -0.75298,3.037589 -0.93027,1.614982 -1.69597,1.915631 -2.05655,2.278191 -0.20696,0.2081 -0.65085,1.36642 -2.26111,1.507659 -3.77363,0.330997 -4.10217,-1.14672 -6.5949,-2.522826 -0.68528,-0.378309 -1.24593,-0.312121 -2.07269,-0.313778 -0.97692,-0.002 -1.35577,0.0878 -2.44866,-0.366512 -1.12151,-0.466211 -1.09004,-0.665504 -1.12779,-1.532711 -0.0518,-1.189212 -0.004,-2.474762 -0.004,-3.606407 0,-1.646187 -0.70433,-4.683 -0.94576,-4.935932 -1.35756,-1.422224 -1.11525,-2.005109 -4.33016,-2.085712 -0.79715,-0.01999 -1.24694,-0.0028 -2.07269,-0.0028 -1.12253,0 -1.35619,0.03392 -2.261109,-0.0075 -1.541454,-0.0705 -2.558659,-0.663337 -2.826243,-0.820915 -0.225688,-0.132897 -1.062828,-0.356477 -1.293973,-1.639652 -0.2907,-1.6138 0.112706,-2.461007 0.208058,-2.65789 0.510051,-1.053129 1.274651,-5.546592 5.419567,-6.452096 7.16417,-1.565087 9.33008,0.816014 10.36342,2.275411 0.43949,0.620683 1.22016,1.901842 1.65542,2.457056 0.25399,0.323974 0.52273,0.741668 1.73625,0.9346 1.31576,0.209189 2.53617,0.38927 4.52222,0.737566 1.4933,0.261889 3.1382,0.563036 4.52222,0.888169 1.86175,0.43737 2.88233,1.658389 3.5779,3.335979 0.367,0.885121 1.11679,3.131227 1.47194,3.744101 0.29502,0.509119 0.49045,0.494623 1.16908,0.702862 0.98747,0.303001 3.15158,1.040625 3.95607,1.311795 1.15152,0.388146 2.79883,0.919062 4.14537,1.539606 2.03442,0.937555 2.77414,4.149489 3.24294,6.370786 0.56035,2.655098 0.39949,3.624774 1.13389,5.882548 0.44583,1.370637 1.51772,1.643137 1.84122,1.934227 1.54735,1.3923 2.77986,3.20665 4.33379,5.09298 M 113.92417,57.974873 c -1.76404,1.782456 -2.50626,7.07629 -4.3338,8.922918 m -22.6111,4.556384 c -0.407863,1.45891 -0.994515,3.765514 -1.507407,4.746233 -1.594322,-3.623858 -2.836117,-4.6392 -3.277245,-5.885329 -0.723382,-2.043453 0.485371,-5.00701 1.476297,-6.827102 0.877001,-1.610845 4.515239,-2.573383 6.134742,-2.935781 0.622918,-0.139398 3.941181,-1.140892 5.464349,-0.868679 m -28.263874,1.328945 c 1.278522,0 2.154431,-1.978342 8.102311,1.518795 m -6.594904,13.859 c -6.061995,-3.796141 -6.533502,-3.319501 -7.406473,-6.265028 -0.05315,-0.179339 1.037251,-5.227229 1.617612,-6.256823 0.769539,-1.365214 1.910974,-1.477416 3.716177,-2.096547 m 29.582854,0.569548 c -1.815185,1.845388 -1.884258,2.430336 -1.884258,7.593973 0,2.063499 -0.658041,4.874147 0.76475,5.455526 1.173975,0.47971 3.041851,0.429803 5.07645,0.429803 1.581439,0 3.172919,-0.04435 3.580099,0.252989 2.68758,1.96263 4.69906,0.897636 6.02962,-0.442838 m -33.351372,-11.960507 0.376851,2.278191 m -7.725458,-1.708643 c -0.109952,2.579744 -0.382919,4.604297 -0.376708,5.885328 0.0022,0.449769 -0.09659,1.188876 0.4385,2.274531 0.506113,1.026848 1.063719,0.978655 1.260098,1.022201 0.872286,0.193418 1.337548,0.28387 2.823478,-0.448992 -0.384931,-1.312097 -1.322753,-4.090126 3.956942,-3.417288 l -0.188426,-1.708643 m 11.30555,-0.759398 v 1.139096 m -14.131937,-0.189849 0.565277,0.189849 m 0.376852,0.18985 h 0.565277 m 0.376852,0.189849 h 0.942129 m 11.117124,0.189849 -0.188426,0.379699 m -21.480544,0.569548 0.753703,0.759397 m 15.074066,0 c -1.073713,0.576628 -1.189099,0.456918 -4.899071,-0.759397 1.025663,6.99724 0.473198,5.97811 -0.565278,7.024424 1.533208,1.799803 1.663275,1.277764 2.13404,2.657891 0.643332,1.886037 2.202652,5.646184 3.141883,8.353374 1.195051,-1.20834 2.688306,-2.23528 2.391815,-6.454881 -0.265986,-3.78548 -2.002537,-4.669327 -3.333944,-6.075178 -1.145908,1.997983 -1.994158,2.204437 -2.637961,2.84774 m 9.044439,-7.783822 v 0.189849 m -26.568041,0 c -0.358042,1.46431 -1.515077,8.59892 -1.428604,9.112767 0.302115,1.795249 1.660859,2.132537 2.182307,2.657891 0.878175,0.88475 1.824478,2.063654 2.637962,2.186484 0.414505,0.0626 0.584225,-0.43442 2.072684,-0.23085 1.092448,0.14941 5.382476,1.28618 6.78333,1.6515 m 8.856013,-14.808244 c -0.313391,0.930927 -0.724658,2.549547 -0.942129,4.176685 M 63.802893,72.78312 c 0.811138,5.44e-4 0.758683,-0.685794 4.333794,1.518794 m 20.726841,-1.139096 c 1.613051,-0.238945 1.749851,-0.356268 2.072684,-0.372085 1.071827,-0.0525 2.012921,-0.0076 3.014813,-0.0076 m -21.103692,0.379698 c 1.109422,1.371727 2.229949,2.213882 3.203239,3.417288 l 2.637961,-2.65789 m -9.421291,0.759397 v 0.569548 m 24.683783,0 C 92.538809,77.955449 91.595007,79.62239 89.805657,81.706051 88.89129,80.814776 88.698621,80.697569 84.341308,81.8959 M 70.020945,76.010558 v 2.468041 m 15.450918,-2.278191 c -0.07498,1.027786 -0.727022,3.719048 -0.942129,4.556383 m 1.130555,-3.037589 c 5.881648,-2.978145 5.586951,-0.822132 6.594904,0.189849 M 59.845951,76.769955 h 3.768516 c 1.081793,4.18e-4 0.960876,-0.68234 5.464349,1.328946 m 7.348607,-1.328946 h 0.188426 m -5.464349,0.379699 0.188426,3.796986 m 34.481934,-2.847739 c -1.15947,1.181367 -2.59182,6.247229 -5.0875,9.682319 -1.000155,-1.0077 0.25409,-2.22294 -6.218057,-2.08835 M 59.657525,78.478599 h 4.145368 c 0.412176,6.96e-4 0.593218,-0.135515 2.072684,0.274519 0.818141,0.226756 3.5743,0.898494 4.52222,1.434125 m 1.884258,-1.708644 0.188426,0.379699 m 50.309699,0.569548 c 1.58855,1.600556 1.48973,3.751111 6.02963,4.840564 1.08302,0.2599 2.35916,0.28537 3.76851,0.28537 6.63934,0 9.2473,-0.45568 10.36342,-1.518797 m -24.49535,-3.417288 c -1.40019,1.414658 -2.11576,2.378609 -2.33628,2.657891 -1.33574,1.691634 -2.69918,3.906914 -4.82391,7.404124 -0.76681,-0.22837 -0.66016,-0.19544 -4.89907,0.3797 M 59.280673,79.997394 c -1.17819,1.937821 -0.614776,3.330766 -1.022092,6.454876 -0.177943,1.36484 -0.266601,2.95803 -0.140308,4.36653 0.07923,0.88362 0.322431,3.72123 -0.08185,4.36654 -0.917265,1.4641 -1.469866,1.59553 -1.95899,2.08834 -1.404392,1.415 -2.697692,2.71808 -4.145368,4.17669 M 99.038522,79.997394 94.516303,83.79438 94.327877,80.756791 M 59.845951,80.187243 h 3.956942 c 0.408404,6.61e-4 0.593,-0.140266 2.072684,0.214612 0.963486,0.231078 4.313582,1.033627 5.464349,1.683881 m 0.942129,-1.518794 0.565278,3.417288 m 1.130555,-3.417288 0.188426,5.885328 m 0.942129,-4.746232 0.188426,2.278192 M 61.541783,81.895887 c 0.868888,0 1.377479,-0.438296 4.333794,0.08804 1.051454,0.187196 5.081322,1.193673 6.406478,1.620601 m 9.609717,4.17669 c 0.270408,0.78434 0.574674,1.47564 1.507407,1.4123 0.554243,-0.0376 1.652107,-1.62061 2.076031,-2.17097 1.510385,-1.96088 2.867576,-3.64045 4.330447,-5.126663 0.719512,0.733604 1.504618,0.673221 1.507407,4.936083 l 3.014813,-3.03759 m -17.523602,-0.18985 -0.188426,2.27819 m 1.318981,-1.32894 0.565278,0.94924 m -14.131937,-0.75939 c 0.508809,0.54195 0.866541,1.14373 1.695832,3.60713 1.232422,-0.3436 6.469001,0.59588 9.04444,1.8985 m 0.188426,-5.31578 0.188425,0.18985 m 0,0.37969 -0.188425,1.32895 m 2.826387,-1.32895 -0.188426,3.41729 m 8.667588,-3.03759 c 0.733675,0.85261 0.630526,1.08852 2.072684,4.36654 l 2.637962,-3.41729 m -24.872209,-0.3797 8.10231,2.08834 m 1.884258,-2.08834 -0.188425,3.60714 m 3.014813,-3.41729 v 1.51879 m 3.956942,-1.32894 1.130555,1.70864 m -1.318981,-1.13909 -0.942129,0.94924 m 18.654162,-0.56954 -2.261115,3.22743 c -0.6834,-0.68856 -0.5128,-2.36599 -3.014813,-2.11441 -0.860912,0.0866 -3.788177,0.58635 -4.899072,0.59562 m -24.495357,-1.1391 0.565278,1.8985 c 1.192043,-0.54605 2.577388,0.68311 5.087497,0.18985 m 8.479162,-2.08835 v 0.18985 m 4.333794,0 c 0.51889,0.53569 0.46214,0.79875 2.26111,3.98684 l 1.884258,-2.27819 m -8.290736,-1.1391 0.188426,0.56955 m 2.826387,-0.18985 c -0.318532,2.51966 -0.465855,4.58424 -1.318981,5.50563 m 29.206002,-5.12593 c -1.4755,2.42906 -3.44144,4.6987 -1.31462,7.01974 0.3444,0.37585 0.64686,0.66063 0.93777,0.95393 l -0.94213,0.94925 c -0.53183,-0.5358 -0.52223,-2.14839 -2.82638,-1.72623 -1.02137,0.18713 -5.10123,1.30572 -6.40648,1.72623 m -34.105079,-8.54322 0.565277,2.08834 c 1.24364,-1.0337 5.443378,0.0558 9.421291,1.32894 m -4.522219,-3.41728 h 0.188425 m 8.479162,0 v 0.18985 m 24.872213,-0.18985 h 0.37685 m -34.481928,0.56954 c 1.4639,0.30444 3.333765,0.59213 4.52222,1.32895 m 22.422673,-0.94925 c -0.625224,0.59247 -3.231853,2.93544 -3.272737,3.23492 -0.19551,1.43215 1.195729,0.3621 1.548993,2.65041 0.06586,0.42661 0.02791,3.788462 0.02791,4.936082 m -15.827769,-10.631562 0.188426,2.27819 m 23.364802,-0.94924 c 3.86821,-2.0752 4.35668,-1.50415 5.46435,-0.56955 M 76.9927,91.578198 c 0.161549,0.51831 0.219868,0.6191 0.753703,0.56955 v 0 m -6.218052,-0.3797 h 0.376852 m 15.074066,0.56955 c 0.818952,0.54691 3.405356,0.68042 3.956942,0.81974 1.29089,0.3261 1.335214,3.19667 3.768516,1.2686 m 8.290743,-2.08834 v 0.56955 m -35.989339,-0.3797 0.565278,1.70864 c 0.535146,-0.33982 0.614799,-0.71238 1.318981,-0.84377 0.325812,-0.0608 1.610474,0.10719 1.695832,0.84377 m 6.78333,-1.51879 -0.188426,0.18985 m 0.753703,-0.18985 v 0.18985 m 8.667588,-0.18985 -1.507407,2.08834 m -4.899071,-1.89849 v 0.18985 m 1.318981,0.18985 c 0.301741,2.85726 -0.91987,6.00199 0.753703,7.214272 0.0165,-0.633192 -0.384569,-1.175212 -0.565277,-2.088342 l 1.31898,1.13909 c 0.23758,-0.52266 -0.628329,-1.79453 0.188426,-1.51879 l 0.188426,0.18985 0.188426,-0.18985 m 19.407866,-3.22744 c 3.5489,-0.82723 4.8092,-1.82015 6.21805,-0.56955 m 1.69583,3.60714 c 1.8996,-0.3606 4.2401,-1.36076 6.21805,-2.02505 4.97756,-1.67173 10.64445,-2.88108 15.63935,-2.28728 3.68844,0.43847 8.25402,0.75801 11.87082,2.11471 3.74982,1.4066 7.09873,3.8372 2.63797,5.126522 -1.0388,0.30024 -3.72918,-0.0278 -4.52222,-0.0668 -4.79605,-0.23584 -8.98669,-0.2044 -15.2625,0.85637 -5.46921,0.92443 -10.91184,2.79504 -15.63934,5.25352 -1.24357,0.64671 -5.18227,2.92191 -6.02948,2.75721 -2.31702,-0.45043 -0.67805,-2.44322 -2.45317,-2.74593 -0.76948,-0.13122 -8.286049,1.06458 -9.983083,1.07874 M 78.876958,93.666538 v 0.56955 m 22.045822,-0.56955 v 2.84774 m -30.148132,-2.65789 h 2.072684 m 0.376851,0 h 0.376852 m 4.52222,0 h 0.188426 m -4.145368,0.18985 h 0.376851 m 9.986569,0 h 0.188426 m -17.14675,0.18985 0.942129,2.46804 c 0.694435,-0.49224 2.433941,-3.20654 3.391665,-0.18985 m -1.695833,-2.27819 -0.376851,0.3797 m 3.014813,-0.18985 c 0.923285,0.0425 2.303225,0.15588 2.826387,0.94925 m 0,-0.94925 h 0.188426 m 4.52222,0 h 0.565277 m 2.26111,0 c -0.460277,1.56895 -0.107099,2.2432 0.565278,2.46804 m -6.029627,-2.27819 v 0.18985 m 0.565278,-0.18985 v 0.18985 m -0.942129,0 v 0.18985 m -6.406478,0 h 0.188425 m 2.449536,0 v 0.18985 m 7.160181,-0.18985 v 0.3797 -0.3797 m 5.275924,0 -0.188426,0.18985 m 16.393046,1.51879 c 4.28325,-1.62813 5.70274,-1.84454 6.78333,-0.94924 m -33.162945,-0.56955 c 0.782282,0.0813 1.95271,0.37904 1.130555,1.32894 m 16.581472,-1.32894 -1.130554,0.94925 c 0.593517,0.84892 1.403791,0.49502 1.990972,2.65789 0.06694,0.24657 0.303334,5.201862 -0.29514,6.454872 M 58.526969,95.375188 c 0.448248,1.60797 1.298671,1.76391 1.884258,2.28772 1.463722,1.30929 2.992336,2.453582 4.52222,3.787462 l 0.942129,-0.7594 1.318981,2.27819 m 5.464349,-7.593972 h 0.188426 m 1.130555,0.18985 h 1.318981 m 4.145368,-0.18985 0.188425,0.3797 m -0.942129,-0.18985 c 0.427972,0.6149 0.557889,0.73986 1.130555,1.32894 l 0.753704,-1.51879 m -1.130555,0.18985 -0.376852,0.3797 m 1.318981,-0.3797 0.188426,0.94924 m -8.856014,-0.75939 c 1.160025,0.20009 5.609141,1.39295 6.594904,2.27819 m -2.1983,-2.15163 0.0628,0.12658 -0.0628,-0.12658 m -17.586412,0.0633 c -1.534605,2.17456 -1.34143,3.24743 -1.695979,3.60713 -1.462445,1.483702 -2.845659,2.428072 -4.333647,4.556392 m 23.176376,-8.163522 h 0.188426 m 0.753703,0 v 0.3797 m -3.956942,-0.18985 -0.376852,0.18985 m 4.710646,-0.18985 0.188426,0.18985 m -3.580091,0 v 0.37969 h -0.753703 m 6.029626,-0.37969 0.188426,0.94924 c 1.227695,-0.25244 0.993278,1.07516 1.884258,2.08834 m 11.30555,8.163522 c 0,-3.97704 0.512248,-6.71828 -0.76475,-8.163522 -0.193129,-0.21857 -0.364511,-0.37691 -0.549723,-0.56486 -0.288987,-0.29325 -0.603413,-0.60811 -0.946637,-0.95393 l 2.26111,-1.70864 m 6.594904,0.18985 v 3.22743 m -41.07683,-3.03759 c -1.86561,1.8797 -3.195422,3.664372 -5.841201,5.695482 m 22.799525,-5.695482 -1.318981,0.94925 c 0.921336,0.45319 1.32208,0.20365 2.072684,-0.18985 m -6.971755,-0.56955 0.942129,2.2782 2.26111,-2.08835 c 0.537871,0.37293 0.735503,0.44591 1.318981,0.18985 m 2.449535,-0.3797 0.753704,0.18985 m 1.695832,0.56955 0.753703,-0.7594 m -3.768516,0.18985 h 0.376852 m 5.087497,0 v 0.3797 m 2.449535,-0.3797 v 0.7594 m 3.20324,-0.7594 -0.753704,0.56955 m -0.753703,-0.3797 h 0.188426 m -12.62453,0.18985 c -0.341304,0.34388 -0.853949,2.01951 -2.637962,1.89849 m 5.087497,-1.89849 0.188426,0.18985 m 4.333794,-0.18985 c 0.140882,0.99015 0.483888,1.37823 0.942129,1.89849 -0.657823,0.35166 -0.982272,0.50144 -0.753703,1.328952 l 0.376851,-0.949252 m -3.203239,-2.08834 c 0.176816,2.02517 -0.842712,2.736202 -1.508131,3.417292 -0.07206,0.0738 -0.418524,0.42239 -0.941404,0.94925 -1.051862,1.05988 -1.622447,1.71251 -1.884258,2.27819 1.530206,-0.77402 1.62998,-1.18715 2.072684,-2.27819 m 3.58009,-4.366542 -0.753703,1.1391 0.753703,0.3797 c -0.582833,0.71511 -0.564875,1.027342 -0.376851,1.518792 l 1.31898,-0.759402 m -5.8412,-2.08834 h 0.376851 m 2.637962,1.1391 -0.753703,-0.7594 1.31898,-0.18985 m 7.913885,0 0.376852,-0.18985 m 5.652774,0 1.884259,2.08834 m -16.204621,-1.89849 -0.565278,0.56955 m 1.507407,-0.56955 0.188426,0.18985 m 2.072684,0.18985 c 0.569837,-0.32425 0.396909,-0.24943 0.942129,-0.3797 m 3.768516,0 v 0.18985 m -0.188425,5.885332 -0.376852,0.7594 c -0.580993,-0.57893 -2.35963,-0.50675 -1.884258,-2.6579 1.330395,0.6251 2.010103,1.64561 2.26111,1.8985 2.29319,-2.15391 3.380986,-4.651292 6.218052,-6.075182 m -15.450918,0.18985 h 0.565278 m -0.942129,0.18985 0.565277,0.7594 -2.26111,2.278192 -0.376851,-0.3797 2.261109,-2.278192 m 0.94213,-0.3797 -0.565278,0.56955 0.942129,-0.18985 m -5.652775,6.454872 c -2.204659,-3.05761 -0.751437,-3.04472 -0.187551,-3.60361 0.148656,-0.14735 0.384465,-0.3991 1.129681,-0.95277 0.766457,-0.569462 1.511236,-2.374752 3.014813,-1.518792 m 0.188426,-0.56955 -0.376852,0.3797 m 0.942129,-0.3797 0.188426,0.18985 m 7.913884,-0.18985 -0.376851,0.3797 m -24.306931,-0.18985 c 0.997533,5.413942 -3.250777,4.966832 -5.087498,7.593972 m 20.538415,-7.593972 c -0.39765,0.40065 -2.654534,1.04941 -1.507406,2.278192 m 4.333793,-2.278192 H 76.9927 m 2.26111,0 c 0,0.38491 -0.06279,0.18987 0.188426,0.56954 m 5.275923,-0.37969 v 0.37969 l -0.753704,-0.18984 m -6.218052,0 0.753704,0.37969 m 31.467113,-0.37969 -1.69583,2.088342 c -0.42336,-0.42387 -0.45423,-1.280632 -1.88426,-1.265812 -0.9038,0.009 -6.672632,1.813272 -8.102312,2.025212 m -16.581472,-2.657902 -1.130555,1.139102 c -0.149997,-0.433792 -0.149652,-0.482042 -0.376852,-1.139102 m 4.710646,0 1.507406,1.518802 m 69.717559,-1.518802 -0.94213,1.328952 c 1.05393,0.31377 1.50266,0.16971 2.07268,0 l -0.94212,-0.949252 m -79.892558,-0.18985 0.565278,0.56955 m 10.928698,-0.56955 c 0.596438,0.60102 1.429323,0.39923 1.990972,2.468052 0.01155,0.0425 1.188397,9.08681 -1.237269,8.73306 v 0.3797 h 0.376852 m -19.219434,-11.390962 0.753703,0.759402 m 12.436104,-0.759402 c 1.126984,1.294372 2.525584,1.405682 3.014814,1.898502 m -2.449536,-1.898502 v 0.18985 m -0.188426,0.379702 2.072684,1.70865 m 68.398578,-1.70865 1.31898,0.3797 m -76.124036,-0.18985 c -1.556347,1.44436 -1.999362,1.82505 -2.637962,2.46804 -2.709725,-1.75806 -1.539361,2.34261 -4.333793,1.70865 m 7.537032,-4.17669 c 0.447759,0.26382 0.534514,0.27787 1.318981,0.56955 -0.226314,0.85343 -0.107726,1.0119 0.376852,1.32894 m 0.565277,-1.89849 c -0.544731,0.75965 -0.523904,0.93394 -0.565277,1.5188 m 1.130555,-1.5188 c 0.482053,0.25737 0.625839,0.22515 0.565277,0.94925 l -0.753703,-0.7594 c -0.173878,0.60635 -0.133729,0.79759 -0.565277,1.51879 m -4.333794,-1.51879 -1.318981,1.70864 m 7.537033,-1.70864 -0.188426,0.18985 m 77.443022,-0.18985 c -0.55046,1.64959 0.56152,2.07636 0.943,2.46804 0.87222,0.89556 1.45811,1.72424 2.63709,2.27819 m -84.603203,-4.55638 c -0.537187,0.19 -0.368214,0.11353 -0.942129,0.3797 0.564432,1.0643 0.454492,1.52512 0.565278,1.89849 0.358962,-0.34952 0.78717,-1.00811 0.753703,-2.08834 m 77.254591,-0.18985 3.01481,0.18985 m -80.834679,0 -0.376851,0.3797 m 1.695832,-0.3797 h 0.376852 m -31.278687,0.18985 0.565278,0.18985 m 7.913884,-0.18985 c -0.947684,2.04758 -1.619928,2.01186 -2.072684,2.46804 -1.052017,1.05996 -2.024715,1.7316 -3.203239,3.41729 m 19.40786,-5.88533 1.130555,0.56955 m 4.899071,-0.56955 h 0.188426 m 4.52222,0 1.507407,1.51879 m 23.364805,-1.32894 -2.07268,2.46804 c -1.26442,-0.94973 -6.0802,0.20744 -10.363428,1.51879 m -30.713409,-3.79698 0.942129,0.18985 m 0,-0.18985 v 0.18985 m 0.753703,-0.18985 0.376852,0.3797 m 15.074066,-0.3797 c 0.5023,0 0.147788,0.0906 0.565277,-0.18985 m -32.597667,0.3797 0.376852,1.13909 m 31.467112,-1.13909 c 0.469052,0.47259 0.241536,0.24336 0.565278,0.56954 l 0.188425,-0.56954 m 3.20324,0 c 0.259861,0.26257 0.519723,0.51103 0.753847,0.76789 0.259942,0.28519 0.593937,0.33942 0.860273,1.32045 0.409956,1.51006 -0.780655,6.8078 0.646989,8.73307 1.124874,-0.99689 2.354691,-0.70232 3.391665,-1.5188 m 75.370336,-9.30261 v 0.37969 M 58.52697,101.83007 c -0.926661,2.00215 -1.516066,1.90719 -1.884258,2.27819 -1.046138,1.05411 -2.062293,2.07788 -3.203239,3.22744 1.453886,-0.25013 2.332701,-1.78078 3.391665,-2.84774 0.259252,-0.26121 0.67501,-0.68012 1.884258,-1.8985 m 15.639343,-0.56955 c 1.197874,1.28314 -1.250765,2.01725 -1.884258,2.2782 m 87.994859,-2.2782 c -0.006,0.76476 -0.2287,1.59657 -0.15309,2.2782 0.23738,2.14018 1.66083,2.27625 2.03663,2.65789 0.25659,0.26058 0.227,1.41105 2.26183,1.13909 v 0 m -89.502267,-5.88533 0.188426,0.18985 m 7.537032,-0.18985 1.318981,1.32895 m 82.718938,-1.1391 v 0.56955 m -114.751328,-0.3797 v 0.18985 m 23.93008,-0.18985 c -0.608146,0.61275 -3.332523,2.84398 -2.072684,2.65789 m -22.422673,-2.46804 h 0.188426 m 24.683782,0 0.565278,1.32895 c -0.593385,0.59786 -0.899468,0.91212 -1.884258,1.89835 -0.444366,0.44501 -1.843081,1.54837 -1.695833,1.89863 m -14.697214,-4.93608 c 0.0989,1.95398 -1.052173,2.19856 -1.318981,2.46804 -0.869434,0.87815 -1.597255,1.64584 -2.449535,2.46248 -0.233549,0.22378 -0.515276,0.36274 -1.884259,1.52436 l -0.753703,-1.32895 v 0.3797 m 12.812956,-5.50563 1.318981,0.94925 m -0.376852,-0.94925 -0.188426,0.18985 m 13.56666,-0.18985 c -0.201129,0.19873 -0.390906,0.40809 -0.595519,0.5823 -1.936413,1.64859 -2.012932,3.57625 -4.491979,3.40454 m -4.710645,-3.79699 v 0.18985 m -2.072684,0 0.565277,1.1391 m 2.072684,-1.1391 c 0.332483,0.61316 0.383982,0.85317 0.188426,1.51879 m 10.740272,-1.51879 -0.942129,1.32895 c 0.294519,0.29674 0.444682,0.44804 1.318981,1.32894 -0.920664,0.27418 -3.38036,1.51555 -3.391665,-1.70864 m 88.560144,-0.94925 v 0.3797 M 50.613086,103.53871 v 0.18985 m 25.814337,-0.18985 c -0.550504,0.55504 -0.553512,2.28278 -2.449535,2.08834 m 75.747182,-2.08834 c -0.55645,0.48827 -0.92137,1.15256 -2.44953,1.87271 -1.17058,0.55165 -5.60527,1.11121 -7.16018,1.57197 -7.13739,2.11502 -12.78315,5.66109 -18.65416,9.05696 -2.05412,1.18814 -6.93852,3.43948 -7.72546,4.9645 l 0.56528,0.37969 m 50.68654,-17.84583 v 0.18985 m -100.054112,0 c -1.211622,1.22077 -2.265003,2.25886 -3.390791,3.41729 -0.265813,0.27351 -1.590072,0.48623 -0.566151,2.08834 l 4.52222,-4.74623 m 40.699984,-0.56955 c -0.72977,1.02361 -1.43991,1.96447 -1.69584,3.03759 m -53.701359,-2.84774 v 0.18985 m 15.262492,-0.18985 1.130555,0.56955 m 9.798143,-0.56955 h 0.376852 m 3.58009,0 c 0.496941,0.32966 0.339055,0.23587 0.942129,0.56955 l -0.753703,0.56954 m 85.356901,-1.13909 v 0.3797 M 58.903822,104.29811 c -0.377065,1.35352 -0.911003,1.48242 -1.131429,1.70864 -0.887274,0.91061 -1.620573,1.65386 -2.448662,2.46702 -0.175973,0.17279 -0.5352,1.33856 -1.884258,0.57057 m 18.088879,-4.74623 -0.188426,0.18985 m 93.836064,-0.18985 v 0.18985 m -113.243924,0 h 0.565278 m 15.262492,0 c 0.05324,1.14066 -0.642131,2.45066 -0.813024,2.65789 -1.744773,2.11573 -2.13201,2.20788 -2.955493,3.03759 -0.333052,0.33557 -0.628375,0.63311 -2.072684,2.08834 -0.478425,-2.18913 1.060447,-2.20702 1.318981,-2.46804 1.061764,-1.072 1.274703,-1.19424 4.145368,-5.12593 m 3.203239,-0.18985 c 1.016342,1.8876 -0.283582,2.1745 -0.753703,2.65789 -0.376162,-0.74696 -0.795652,-0.84645 -1.695833,-1.1391 m 5.087497,-1.51879 0.565278,0.56954 m 9.986569,-0.56954 c 0.421761,0.42531 1.200162,0.38405 1.585628,2.08834 0.465728,2.05916 0.286698,4.45574 -0.653677,4.60091 -0.594788,0.0918 -1.123218,-0.61653 -1.120377,-0.61408 l -0.188426,1.70865 c -2.18535,-0.008 -3.037676,-1.54183 -3.580091,-2.08834 -1.643366,2.31324 0.810373,2.91647 1.130555,3.21718 0.05328,0.05 0.433429,0.39168 0.942129,0.76965 1.396196,1.03741 1.797717,2.15291 1.443872,2.65789 -1.839947,2.62579 -3.960508,4.0352 -5.588952,5.69548 -0.302276,0.30818 -2.147622,2.80649 2.637674,3.22744 0.102988,0.69277 1.534203,4.13573 3.014813,4.21199 1.390158,0.0716 1.367312,-0.66117 1.695832,-0.98543 2.043116,-2.0166 3.537246,-3.56308 6.78333,-6.8337 -0.106473,-0.10817 -0.993111,-1.0479 -1.398944,-1.51879 -1.193786,-1.38515 -1.63193,-1.88334 -2.181147,-2.08131 -0.903239,-0.32559 -2.566951,1.81992 -3.203239,2.46101 -1.773547,1.78695 -3.191813,3.21592 -4.710645,4.74623 m -7.348607,-21.07327 0.376851,0.75939 v -0.3797 m 0.376852,-0.37969 -0.188426,0.18984 m 5.087497,1.1391 1.507407,-1.32894 m 1.884258,0 1.318981,0.94924 v -0.94924 m -16.769898,0.37969 1.130555,0.7594 m 0.565277,-0.94925 0.753703,0.18985 -0.942129,0.94925 m 4.333794,-1.1391 -0.376851,0.7594 m 94.21291,-0.7594 v 0.18985 m -114.939751,0.18985 v 0.18985 -0.18985 m 9.421291,4.17669 c 3.322466,0.22539 3.113615,-2.3927 3.956942,-3.22656 0.288637,-0.2854 0.249483,-0.88582 1.884259,-1.13998 m 7.913884,0.7594 -0.376851,-0.56955 c 0.319757,-0.10739 -0.06991,-0.45014 0.565277,0.18985 m 85.356899,-0.3797 c 0.74773,2.3449 2.03851,3.86295 3.58009,3.60714 M 52.497344,105.24735 v 0.18985 m 6.594904,-0.18985 c -1.951629,1.96638 -2.435146,2.44895 -3.391521,3.41729 -0.274189,0.27761 -1.002821,0.26862 -1.387749,1.70762 -0.304237,1.13735 1.71522,0.0483 1.764456,0 1.117393,-1.09695 2.004808,-2.01893 3.391665,-3.41626 l -0.376851,-0.3797 c -1.271426,1.28103 -1.706983,1.71988 -4.52222,4.55638 m 99.488842,-5.88533 c 2.7195,0.002 2.96408,0.40664 4.33379,2.27819 0.77009,1.05224 1.39426,1.59442 1.50741,1.70865 0.95785,0.96701 1.07707,1.62309 4.33379,1.51879 -0.28817,1.00299 -1.80627,1.45254 -2.07268,0.94925 m 2.63796,-6.45488 v 0.18985 m -112.678648,0 c -0.518832,1.37847 -0.19777,1.56522 1.130555,1.8985 m 7.913885,2.65789 c 1.561402,0.10592 1.560677,-0.81433 1.884258,-1.1391 1.016124,-1.01985 1.245797,-1.76056 3.580091,-3.41729 m 3.768516,0 v 0.3797 l -0.753703,0.56955 m 3.391665,-0.94925 -0.188426,0.94925 0.188426,0.18985 -0.376852,-0.94925 m -21.292118,0 0.188426,0.56955 m 7.537033,-0.56955 c -1.746579,3.77367 -2.933122,3.33498 -4.52222,4.93608 m 19.031008,-4.93608 0.942129,0.94925 m 8.479162,-0.94925 -0.565277,1.5188 -0.942129,-0.94925 m 1.884258,-0.56955 1.695832,0.94925 m 80.834679,-0.94925 h 0.18843 m -91.574955,0.18985 0.376852,0.3797 m 84.980053,-0.3797 -0.75371,0.94925 3.58009,3.60713 0.75371,-0.94924 0.94213,0.94924 0.18842,-1.70864 m 0.37685,-2.65789 0.56528,-0.18985 m -98.546708,0.18985 h 0.565278 m 3.391665,0 c 0.497838,0.54276 0.748367,0.92051 1.507406,0.7594 0.56449,1.77685 -0.835369,1.98012 -1.318981,2.46804 l -0.753703,-1.32895 1.130555,-1.13909 m 30.336558,9.49246 c 1.54779,0.72723 0.81956,1.91217 2.88018,2.27952 1.19756,0.21348 6.37974,-2.82974 8.04852,-3.60319 7.9597,-3.68918 12.06268,-7.21118 19.40786,-8.92819 m 33.72822,0 v 0.18985 m -113.997624,0 h 0.565278 m 22.234247,0.18985 c 2.004261,2.02908 2.492347,0.90526 3.580091,-0.18985 1.237694,2.48805 -1.417058,2.9302 -2.072684,3.41729 -0.767021,0.56985 -1.640935,1.46367 -1.884259,1.70864 l -1.31898,-1.51879 c 0.471668,-0.47718 0.859451,-0.60057 1.695832,-2.2782 m -22.611099,-1.13909 0.188426,0.56955 m 6.971755,-0.56955 -0.188425,0.18985 m 9.609717,-0.18985 c 0.100532,1.03949 0.776578,1.18005 1.507406,1.51879 -1.589825,1.67602 0.251829,3.05963 0.942129,1.32895 m 2.072684,-2.65789 0.376852,-0.18985 m 86.299034,0 3.20324,3.22744 m -95.155049,-3.03759 0.376852,0.3797 m 2.26111,-0.3797 0.565277,0.56955 v -0.56955 m 1.318981,0 v 0.18985 m 0.565278,-0.18985 c -1.22007,1.22929 -1.442641,1.45353 -2.072684,2.08834 m 2.826387,-2.08834 0.188426,0.3797 m 10.740272,-0.3797 0.376851,0.3797 m 80.646259,-0.3797 -0.56528,0.94924 m -91.76338,-0.75939 -0.188426,0.3797 m 19.596286,-0.3797 v 0.18985 m 69.90598,3.60713 c -1.57534,-0.64892 -1.86094,-1.48667 -2.63767,-2.27819 -0.29727,-0.30293 -1.04928,-0.39233 -0.94242,-1.51879 m -74.805052,0.18985 0.188426,0.18985 m 73.862926,0 0.37685,-0.18985 m -88.93699,0.18985 v 0.37969 m 2.072684,-0.37969 -1.130555,1.13909 m 2.072684,-1.13909 h 0.376851 m 9.232866,0 c 0.575547,1.01433 2.274611,2.10184 2.26111,1.32894 l -0.376852,0.7594 m -31.467113,-1.89849 -0.376851,0.37969 m 7.160181,-0.37969 0.753703,1.13909 m 7.725459,-1.13909 0.753704,0.18984 m 16.016195,-0.18984 -0.188426,1.13909 m 79.5157,-1.13909 h 0.56528 m -112.867074,0.18984 0.188426,0.56955 m 0.376852,-0.56955 v 0.18985 m 20.538415,-0.18985 0.188425,0.18985 m 0.94213,-0.18985 -0.565278,0.56955 m 4.899072,-0.56955 1.31898,2.2782 2.637962,-2.2782 m -12.812956,0.18985 -0.565278,0.94925 m 5.652775,-0.94925 0.753703,0.7594 0.565278,-0.56955 m 89.313848,-0.18985 -0.18843,0.94925 m -112.678646,-0.7594 v 0.3797 m 7.160181,-0.3797 c -1.065249,1.07331 -1.361309,1.30962 -4.126904,4.09612 -0.370765,0.37357 -0.499364,1.58232 -0.01846,2.54861 1.373681,-1.38406 1.843661,-1.85759 2.072684,-2.08834 0.996924,-1.00445 1.920681,-1.93519 3.014813,-3.03759 m 7.913885,-1.5188 c -0.519373,1.72862 0.615058,1.73799 0.942129,1.70865 m 88.748558,-1.70865 c 0.10373,3.22044 2.24791,3.44164 2.82639,3.97981 0.30578,0.28448 0.51608,1.04557 1.88426,0.38673 m -110.229106,-4.17669 0.753703,0.18985 -0.753703,0.7594 m 20.538414,-0.94925 c -0.343384,0.34477 -0.301879,1.01801 -2.072684,1.5188 m 3.391665,-1.5188 c 0.869814,1.05613 0.365995,1.87423 -0.376851,2.65789 m 7.725458,-2.65789 c 0.290557,0.29114 0.617698,1.72392 2.637962,1.5188 m -16.393047,-0.3797 c -1.312569,1.32248 -2.393982,2.41207 -3.58009,3.60714 -0.24919,0.25107 -0.55414,0.55833 -1.884259,1.89849 -0.272869,-1.24858 1.105127,-2.25254 1.695833,-2.84774 1.108612,-1.11706 1.535232,-2.49736 3.768516,-3.41729 m 5.464349,-0.18985 c 0.946896,0.31802 0.279511,0.10438 0.376852,-0.18985 m 7.537033,0.18985 c 0.396236,0.3987 0.806261,1.46379 2.26111,1.5188 m -9.986569,-1.32895 c -0.450778,0.44867 -0.866047,1.15461 -1.884258,1.1391 m -11.493976,-0.94925 c -1.321631,1.33161 -2.157558,2.17386 -3.203239,3.22744 -0.232297,0.23405 -0.641517,0.64637 -1.884258,1.89849 m 13.189808,-5.12593 0.188426,0.3797 m 5.652774,-0.3797 0.753704,0.7594 m 88.748563,-0.56955 0.94213,0.56955 m -110.794386,-0.3797 -0.188425,0.18985 m 14.88564,-0.18985 h 0.376851 m 89.12541,0 c -1.27483,2.23796 1.24041,2.95817 1.88426,3.60714 0.27304,0.2752 0.31144,0.5674 1.42977,1.45199 0.78879,0.62392 1.25075,-0.68934 1.58505,-0.50275 m -0.18843,-4.55638 0.56528,0.18985 m -79.892551,0 v 0.18985 m -30.524984,0 0.188426,1.32894 0.188426,-0.56954 m 15.074066,-0.7594 c -1.860814,1.87488 -2.499356,2.51824 -3.580091,3.60714 -0.454636,0.45807 -0.630549,0.63531 -2.072684,2.08834 1.306152,-0.22472 1.662446,-1.10596 1.884258,-1.32895 1.223446,-1.22992 2.307774,-1.89747 3.768517,-3.98683 m 21.66897,-0.3797 h 0.376851 m -36.931461,0.18985 c 0.0941,1.01389 0.131705,1.35643 0.188426,1.89849 l 0.565277,-0.3797 m 6.594904,-1.51879 c -1.276429,1.28607 -2.168507,2.18489 -3.203239,3.22744 -0.204619,0.20616 -0.522536,1.18234 -2.26111,1.89849 m 33.728223,-5.12593 -0.188426,0.56955 m -16.204621,-0.3797 h 0.188426 m 6.783329,0 v 0.3797 m 25.625908,-0.3797 c -0.81972,0.67031 -6.037442,4.82907 -7.725454,6.07517 l -1.318981,-1.32894 m 66.702745,-4.74623 h 0.7537 m -94.77819,0.18985 c -0.367731,1.36112 1.151164,0.50746 1.318981,0.37969 m 12.812956,-0.37969 0.188426,0.56954 0.188426,-0.56954 m 0.942129,0 v 1.32894 m 2.072684,-1.32894 v 0.18985 m 1.695832,-0.18985 v 0.37969 m -34.2935,-0.18984 0.188426,0.18984 m 36.55461,-0.18984 h 0.188426 m -29.394429,0.18984 v 0.56955 m 9.04444,-0.56955 c 1.067905,2.01619 1.023743,2.91975 1.508281,3.41729 1.401497,1.4391 2.018441,2.03458 3.579216,3.60714 0.527803,-0.53815 1.597842,-1.14207 1.201652,-2.22399 -0.502467,-1.37214 -2.461669,-2.02003 -2.520633,-3.85119 m 16.958325,-0.7594 c 1.391032,-0.33368 7.25268,-0.18985 9.609712,-0.18985 m -32.220811,0.18985 -3.580091,3.60714 c -0.420836,0.42364 -0.391291,1.44301 -2.072684,1.32895 m 88.371706,-4.93609 c 5.50862,0 4.58388,1.77117 6.78697,3.99431 0.25951,0.26187 0.50492,0.50521 0.74978,0.75164 0.40392,0.4065 0.82539,0.83162 1.31927,1.32923 h 1.31898 c 0.53665,-1.00902 0.20921,-1.31549 0,-1.89849 -1.36925,0.43225 -1.57734,0.85225 -1.88426,1.13909 m -2.07268,-5.31578 c 0.99093,2.14097 1.6182,2.01013 2.26111,2.65789 0.23996,0.24177 0.40145,0.40448 1.5074,1.5188 m 3.01482,-4.17669 -0.18843,0.18985 m -109.663828,0 0.188426,0.18985 m 33.539796,-0.18985 h 0.188426 m 57.6583,0 c -1.0171,0.78399 -4.02888,1.71547 -6.21805,2.43128 -5.18783,1.69629 -11.16726,3.90803 -15.82777,7.25104 l 2.26111,2.08834 m -73.109219,-11.58081 0.376852,0.3797 m 15.262492,-0.3797 c -1.818654,1.8324 -2.428898,3.87558 -5.464349,5.12593 m 22.799524,-5.12593 0.565278,0.3797 0.753703,-0.3797 m 1.130555,0 -0.376852,0.56955 m -18.654156,-0.3797 c -1.213543,1.22271 -1.6168,1.62902 -1.884258,1.8985 -1.093506,1.10176 -3.130567,1.33837 -3.434988,3.78878 -0.168852,1.35916 3.888588,2.27939 5.13082,2.78007 1.112844,0.4485 1.335743,1.41814 3.203239,1.03859 1.537854,-0.31255 2.918248,-2.89428 3.014813,-3.24091 m 87.241156,-6.26503 0.37685,0.3797 m -76.500882,0 -0.565278,0.7594 0.753704,-0.3797 0.188425,0.18985 c -0.721616,0.79145 -2.226694,0.56955 -3.014813,0.56955 l 0.565278,-1.1391 m 2.449535,-0.18985 h 0.376852 m 2.637962,0 c -0.447512,0.56308 -0.538113,0.68234 -1.130555,0.3797 v 0 m 2.637961,-0.3797 h 0.188426 m 65.760615,0 -0.37686,1.1391 m -102.503642,-0.94925 0.376851,0.7594 m 34.2935,-0.7594 0.376852,0.3797 m -2.826387,-0.18985 v 0.18985 m 3.956942,-0.18985 c -1.047768,0.96853 -1.253611,0.92021 -3.391665,1.32895 l -0.188426,-0.18985 -0.188426,-0.18985 -0.188425,-0.18985 m -32.97452,-0.56955 0.565278,0.7594 m 24.495357,-0.7594 c -0.167207,2.23487 -1.685614,2.6476 -2.072684,3.03759 m 85.356895,-3.03759 v 0.3797 m 1.13056,-0.3797 0.18842,0.56955 h -0.7537 m 0.94213,-0.56955 v 0.18985 m -75.558756,0 0.753704,0.18985 m 72.543942,-0.18985 h 0.56528 m -100.242541,0.18985 c 0.01369,3.91026 -3.512755,4.78825 -6.218052,2.84774 m 27.698596,-2.84774 0.565277,0.56955 m 3.768517,-0.56955 c -0.469081,1.02099 -0.874914,1.34206 -1.130555,1.89849 l 1.318981,0.3797 -0.188426,-1.1391 m 2.637961,-0.94924 c 0.636725,0.34236 7.191026,0.21022 8.102311,0.44004 1.200352,0.30276 1.259827,0.83449 1.695831,1.2686 m 62.36895,-1.51879 c -0.33293,0.62899 -0.5988,0.76058 -0.94213,1.32894 m 1.50741,-1.32894 0.18842,0.56954 m 0.18843,-0.56954 v 0.3797 m -79.5157,-0.18985 c 0.126519,0.82602 1.935385,2.11944 2.207316,2.49601 1.050022,1.45411 0.461813,2.05331 2.303858,2.32024 0.603718,0.0875 1.184383,-2.10584 1.55407,-2.25431 1.102655,-0.44285 2.048826,-2.14002 3.684045,-1.62617 1.721248,0.54088 2.071229,2.78307 2.309964,3.05106 l -0.565277,0.3797 1.695832,1.70864 m -10.551846,-6.07517 v 0.56954 m 74.993478,-0.56954 v 0.37969 m 0.37685,-0.37969 v 0.37969 m -73.48607,-0.18984 0.188426,0.18984 m 0,0 -0.565277,0.56955 m -26.19119,-0.3797 0.565277,0.56955 m 98.735134,-0.56955 h 0.18842 m -66.702738,0.18985 -0.188425,0.18985 m 67.644873,-0.18985 0.18842,0.18985 m -78.573565,0 v 1.70865 m 9.609717,-1.70865 c 0.231909,0.74436 0.584932,1.16675 1.31898,1.1391 m -0.942129,-1.1391 v 0.56955 m 63.499497,-0.56955 c -2.89757,3.4521 -1.79316,3.51153 -3.95694,4.93608 2.03212,2.04749 2.23505,2.05929 3.17185,3.22744 0.17731,0.22112 0.7131,0.68223 0.1541,1.69824 -0.51006,0.92709 -1.65307,0.97358 -1.81854,0.91453 -1.15658,-0.41273 -1.9794,-1.71775 -2.63157,-2.42292 -0.25391,-0.27454 -0.61868,-0.2882 -0.73829,-1.51879 -0.0972,-1.00042 -1.0844,-1.82929 -1.15251,-1.8985 -1.15919,-1.17794 -2.18056,-2.19717 -3.39152,-3.41728 m 16.20463,-1.5188 -0.75371,1.70865 m -75.747178,-1.32895 -0.565277,0.56955 m 11.305549,-0.56955 1.130555,1.1391 m -6.218052,-0.94925 0.565277,0.56955 0.565278,-0.56955 m -5.275923,0.18985 1.130555,1.1391 m 4.333793,-0.94925 -0.565277,0.18985 m -30.336558,0 0.188426,0.18985 m 78.385142,6.64472 c -3.43067,0.28233 -3.04417,-0.60109 -3.58009,-1.13909 3.57751,-2.57412 5.43402,-3.95611 7.91388,-5.69548 m -46.729599,0.18985 1.130554,1.13909 m 61.992095,-1.13909 h 0.37685 m -71.413384,0.18985 1.507407,1.51879 c -0.394575,0.54999 0.823856,2.80289 0.942129,3.22744 -0.836025,-0.5861 -1.046486,-0.81597 -1.507407,-1.1391 0.253703,0.69801 0.371044,1.67375 1.695832,1.32895 m 1.695833,-4.93608 h 0.376852 m 65.949038,0.18985 0.37685,0.56954 m -72.355515,-0.37969 2.072684,2.08834 m 69.905981,-2.08834 -0.37685,0.37969 m -68.963853,0.3797 c 0.539021,-0.14206 1.017406,-0.16683 2.072684,0.3797 l 0.753703,-0.94925 m 2.449536,0 -1.318981,0.94925 c 0.307095,0.28501 0.577278,1.41461 2.072684,0.3797 m -4.52222,-1.1391 h 0.565278 m -30.71341,0.3797 0.376852,0.3797 m 30.901835,-0.3797 0.565278,0.56955 m -1.130555,1.1391 -1.130555,-1.32895 0.188426,-0.18985 c 1.274393,1.35096 0.900272,0.86719 1.507406,2.46804 l -1.50741,-0.56954 H 93.197322 93.008896 92.82047 m 50.87498,-1.8985 0.56527,0.56955 m 16.0162,-0.56955 c 0.0301,0.86179 -0.11342,1.28695 -0.75371,1.8985 l 0.37686,1.51879 -1.31898,-1.1391 1.31898,1.32895 m 1.31898,-3.03759 c 0.26714,-0.0897 0.19497,0.17007 0.37685,-0.3797 l -1.13056,0.3797 m -66.137463,-0.3797 c 1.238862,1.09191 0.860469,0.64478 2.072684,2.27819 2.015083,-1.49091 2.428719,0.73383 3.203095,1.5188 0.719084,0.72892 1.804894,2.05175 2.264744,2.35598 0.68021,0.45 1.60258,0.58419 2.0692,-0.26764 -0.9648,0.95665 0.0828,2.59333 1.31898,2.27819 -0.54632,-0.56683 -0.65221,-1.09258 -1.88426,-2.08834 m -2.63796,-6.07518 -0.18843,0.18985 m -8.102311,0 h 0.753703 m -0.376852,0 0.188426,0.18985 m -0.565277,0.18985 0.188425,0.18985 m 2.26111,-0.18985 -0.376851,0.3797 m 4.145368,-0.3797 0.376851,0.3797 -0.188425,0.56955 m 0.753703,-0.94925 c 1.07791,1.08605 0.93636,3.43279 4.71065,1.51879 m -11.49398,-1.32894 0.565278,0.56955 m 62.180522,-0.56955 c 1.19612,1.20424 1.84891,1.66969 2.82639,1.51879 m -69.340706,-1.32894 c 0.674372,0.67699 1.332511,1.45249 2.637961,1.32894 m 3.203239,-1.32894 c 0.207241,0.24334 0.342051,0.46042 0.942129,1.13909 m 1.884259,-1.13909 0.942129,0.18985 m -0.376852,-0.18985 v 0.3797 m 0.753703,-0.18985 c 0.630061,0.10839 1.722598,1.24711 2.637968,1.9272 1.05736,0.78559 2.3313,1.76856 2.26111,2.81903 m -15.262498,-4.74623 c 1.255797,1.26528 2.368163,1.77215 3.203239,3.98683 m 7.160181,-3.98683 c 0.683579,0.68873 0.710128,1.37185 2.449538,2.08834 m -3.391667,-1.89849 -0.188426,0.3797 M 144.826,118.34696 c 1.61808,1.63031 2.33677,2.35441 4.89907,4.93608 l 1.50741,-1.8985 m -57.846732,-2.84773 c 0.365793,0.3602 0.649749,1.41624 1.695832,0.75939 m 0.188426,-0.75939 0.188426,0.18984 m 2.072684,-0.18984 -0.376852,0.37969 m 0.942129,-0.37969 2.072687,2.08834 0.37685,-0.3797 -1.695833,-1.70864 m 44.656923,0 -0.56528,0.94924 m 15.63935,-0.56955 0.94212,-0.37969 m -8.10231,1.32894 c 0.2374,-0.32864 0.4912,-1.06199 1.88426,-1.1391 m -57.469877,0.18985 -0.565277,0.56955 m 45.222204,-0.56955 1.31898,1.32895 m -45.410629,-1.1391 -0.942129,0.18985 m 48.048588,-0.18985 h 0.37685 m -52.947658,0.18985 c 0.520925,0.59716 0.942371,1.57618 1.884258,1.32895 m 0.942129,-1.32895 c 0.489661,2.06269 2.652246,3.1419 2.464366,4.74624 -0.428541,3.65942 -5.365202,5.77049 -7.175011,7.59397 0.204699,0.28774 0.627334,1.76257 1.698742,1.68637 0.964383,-0.0686 2.095852,-1.71265 2.2582,-1.87622 1.846853,-1.86081 3.547245,-3.57404 5.275923,-5.31578 0.468598,-0.47215 1.918311,-0.35493 1.884261,-2.65789 -2.295131,1.62894 -2.293792,2.12127 -3.014816,2.84774 -1.92608,1.94062 -3.012277,3.03504 -6.78333,6.83457 m 6.971756,-13.859 c 0.34147,0.34379 0.338693,1.54765 2.26111,1.5188 m 58.22358,-1.5188 1.69583,1.32895 m -63.311075,-1.1391 1.884258,1.89849 c -1.764686,0.3566 -1.875086,-0.8746 -2.26111,-1.70864 m 16.769897,0.18985 h 0.18843 m 3.95694,0 h 0.18843 m 26.75647,0 c 1.64822,1.66068 2.50379,2.52269 4.89907,4.93608 l 1.13055,-1.32894 M 95.08158,120.0556 c 0.209489,0.75199 1.285273,2.41302 2.449536,1.89849 m 17.523604,-1.89849 0.18843,0.94925 m 27.13331,-0.94925 -0.18842,0.18985 m -41.64211,0.18985 0.37685,-0.18985 m -0.37685,0.18985 c 0.52174,0.52579 2.1109,0.64897 1.31898,2.46804 m 12.62453,-2.46804 0.37685,0.3797 m 0.18843,-0.3797 0.37685,0.3797 m 7.16018,3.41728 c 0.85928,-1.50387 -0.79709,-1.72155 -1.31898,-2.46804 l 2.82639,-1.32894 m 18.46573,0 -0.18843,0.18985 m -3.01481,1.51879 c -1.57767,0.4366 -1.76011,-0.84783 -1.69583,-1.51879 m 4.33379,0 -0.37685,0.3797 m -42.772663,-0.18985 -0.753704,0.75939 1.884258,1.8985 m 6.406479,1.32894 c -1.16947,-0.54989 -1.52143,-0.94959 -1.5074,-1.89849 0.43228,0.43555 0.82659,0.76355 1.68478,1.70864 0.51123,0.56302 1.70407,1.92214 3.02586,3.22744 -1.39687,1.77099 -2.19855,2.59483 -2.44953,2.84774 -1.51901,1.53059 -3.0145,3.03727 -4.52222,4.55639 -0.27025,0.27228 -1.14562,1.15426 -2.44954,2.46804 1.19595,1.36814 2.96107,1.16899 6.21805,1.48657 0.96416,0.094 2.54023,0.25036 3.58009,0.11279 1.21038,-0.16013 5.26062,0.45918 6.59491,-0.67824 1.72504,-1.47053 1.80874,-1.79429 2.44953,-2.43992 1.4976,-1.50892 2.91724,-2.93926 4.89907,-4.93608 -2.0189,-2.12542 -0.96768,-1.16364 -2.63796,-2.84774 -1.58115,-1.59423 -1.28398,-1.41075 -3.20382,-3.41641 l -0.36784,-0.37208 c -0.24904,-0.25202 -0.49598,-0.49974 -0.76213,-0.76789 2.04451,-0.29108 2.03319,1.04067 1.31898,2.08834 -0.26533,-0.26734 -1.14022,-1.14883 -1.88426,-1.89849 -0.79055,-0.79653 -1.51274,-1.52418 -1.69583,-1.70865 l -0.37685,0.3797 1.5074,1.70864 c -0.8965,-0.36936 -1.0617,-0.42653 -1.77463,-1.89849 -0.26652,-0.55027 -0.75727,-1.27071 -0.48648,-1.70864 m 25.06064,1.51879 c -0.70451,0.0478 -2.15881,-0.15991 -1.31898,-1.51879 m -64.253211,0.18985 c 0.06057,0.41293 -0.158795,2.02015 3.391664,2.84774 m 15.82777,-2.84774 -0.188426,0.56954 m 18.277303,-0.56954 c 0.40084,0.52536 0.66101,1.46005 2.44954,0.18985 m 29.77128,-0.18985 c 1.48588,2.1253 2.25311,2.45995 4.89907,5.12593 l 1.13056,-1.32895 m -39.00415,-3.60713 h 0.18843 m 6.02962,0 -0.56527,1.13909 h -0.37686 v 0 m 1.50741,-0.7594 v -0.37969 c 0.69597,0.49388 0.77382,1.21617 2.07269,1.57432 1.29085,0.35592 2.60938,-0.36851 3.01452,-0.0363 0.21647,0.17747 0.37383,0.36053 0.55714,0.54215 0.24895,0.24667 0.50348,0.507 0.76213,0.76761 m 15.45092,-0.7594 c -1.57545,0.1269 -2.02019,-1.25865 -1.50741,-2.08834 m -27.6986,0.18984 h 0.18843 m -2.26111,0.18985 h 0.18843 m 30.14813,1.70865 -1.13056,-1.70865 m -31.09026,0.56955 1.50741,-0.18985 m 5.65277,-0.18985 0.75371,0.7594 c 0.14348,-0.4337 0.15073,-0.22781 -0.18843,-0.56955 m 1.13056,-0.18985 -0.18843,0.7594 0.56528,-0.56955 m 2.07268,-0.18985 0.4068,0.40988 c 1.49028,1.50155 1.90452,2.16303 3.36172,3.19726 0.548,-1.74973 -0.56286,-1.88929 -1.13056,-2.46804 m 15.45092,-0.56955 1.69583,1.89849 -0.18842,0.18985 -1.69584,-1.89849 1.50741,-0.7594 m -31.84396,0.18985 -0.37685,0.3797 m 7.72545,-0.3797 c -0.2895,0.65478 0.45251,1.23604 0.0872,2.27116 -0.57566,1.63132 -2.3538,-0.38022 -2.7252,-0.75236 l 2.07269,-0.94925 m 0.7537,-0.56955 c 0.38126,0.43972 0.60425,0.77551 1.69583,1.8985 l -0.56528,-0.94925 m 17.33518,-0.94925 c 0.13963,0.14069 1.30142,1.31125 1.88426,1.8985 1.05796,1.06595 1.46688,1.47796 1.88426,1.89849 0.30312,-1.20727 -0.24463,-1.7546 -1.69584,-2.08834 m -23.74165,2.84774 1.31898,-1.32895 c -0.92285,-1.14958 -0.47247,-0.52748 -1.16152,-1.51879 -0.4896,-0.70436 -0.74452,-1.30653 -0.72274,-1.5188 m 3.39167,0 0.7537,0.7594 m -7.34861,-0.56955 1.13056,0.18985 1.50741,1.70864 c -0.087,-0.61728 -0.19963,-1.31703 -1.13056,-1.51879 m 3.01481,2.84774 c -1.02914,-1.28408 -0.64058,-0.61127 -1.13099,-1.70864 -0.35156,-0.78667 -0.5877,-1.30003 -0.56484,-1.5188 m 5.0875,0 0.37685,0.3797 m 2.63796,-0.3797 1.31898,1.5188 m 12.05926,-1.5188 -0.37686,0.18985 m 9.79815,-0.18985 0.18842,0.18985 m -41.453682,0 -0.565277,0.94925 m 4.333799,-0.94925 c 0.21451,1.61706 2.37878,3.9152 2.82639,4.36654 -1.22001,1.22922 -2.79287,2.81397 -3.768524,3.79698 -0.66669,0.67173 -1.26011,1.26963 -1.884259,1.89849 l -0.94053,0.94925 c -0.179248,0.18664 -0.377628,0.36198 -0.519189,0.56955 -0.229874,0.33706 -0.556767,3.07527 1.648145,2.07546 1.563743,-0.70909 1.473382,-1.28181 1.884258,-1.69576 1.670639,-1.68315 3.306559,-3.33154 4.899079,-4.93608 0.37479,-0.37763 0.83916,-0.8455 2.82638,-2.84774 m -5.27592,-3.60714 0.94213,-0.18985 m 3.39166,-0.3797 h 0.18843 m 13.00138,0 1.88426,1.89849 m 11.87083,-1.70864 c 0.62005,0.6257 1.80389,0.73154 1.13055,2.27819 l -1.69583,-1.89849 1.13055,-0.56955 m 5.46435,0 0.18843,0.18985 m -29.77128,0 0.94213,1.1391 m 1.88426,-1.1391 h 0.7537 m 13.94351,0.18985 0.37685,-0.18985 m 9.79815,0 0.18842,0.18985 m 2.82639,-0.18985 c 1.77662,1.79006 2.56636,2.6158 3.76851,3.79597 0.40511,0.39769 0.4903,1.96494 2.82639,-0.37868 m -42.01896,-3.22744 h 0.18843 m 12.81296,0 -0.37686,0.3797 m -13.94351,-0.18985 h 0.56528 m 4.89907,0 0.94213,1.13909 0.37685,-0.18984 v 0 m 0.37685,-0.94925 -0.37685,0.3797 m 0.94213,-0.3797 c 1.40849,1.54276 0.48345,1.15597 1.70223,2.46804 0.61476,0.66183 1.74391,1.42864 2.25471,1.32895 0.1692,-0.51145 0.11265,-0.29097 -0.18842,-0.18985 m 18.84258,-1.70865 c -0.57037,-0.5755 -1.41212,-0.91671 -1.31898,-1.89849 m 23.93008,0 c 0.11161,0.32348 0.38509,0.67862 -0.37685,1.13909 m -55.96247,-0.94924 -0.37686,0.3797 m 12.05926,-0.3797 c -0.2764,0.27848 -0.36692,0.0301 -0.18843,0.56955 m 0.75371,-0.56955 -0.18843,0.56955 m 5.0875,-0.56955 -0.37685,0.3797 m 15.07406,-0.3797 h 0.18843 m 8.10231,0 v 0.3797 -0.3797 m -39.00415,0.18985 0.18843,0.75939 0.7537,-0.75939 m 21.66897,0 -0.37685,0.18985 m 13.56666,-0.18985 c -0.215,0.44679 -0.26118,0.4552 0.18843,0.3797 m 2.07268,-0.3797 h 0.7537 m -15.07406,0.18985 h 0.18842 m 11.11713,0 -0.56528,0.56954 c 1.99207,2.08438 3.13311,1.26457 3.58009,1.70894 1.27055,1.26312 1.85915,1.87289 3.95694,3.98654 l 2.07269,-2.27819 m -4.89908,-3.98683 4.3338,4.36653 m -33.16295,-4.17668 -0.56527,0.37969 m 1.69583,-0.37969 c 1.25692,1.21932 1.81327,1.26489 3.01481,2.46804 0.46192,-0.86638 0.15774,-1.31839 -0.56528,-2.08835 m 7.34861,-0.37969 h 0.37685 m 16.7699,0 c 1.50099,1.51232 2.63242,2.65228 4.71065,4.74623 m -37.68517,-4.55638 h 0.37685 m 8.85602,0 -0.56528,0.37969 m 9.23286,-0.37969 -0.7537,0.18984 m 6.97176,-0.18984 c 0.569,0.57381 1.72386,0.66564 1.31898,2.27819 l -1.88426,-1.8985 0.7537,-0.56954 m -24.49535,0.37969 -0.37686,0.3797 m 3.58009,-0.3797 v 0.56955 m 1.88426,-0.56955 0.37685,0.3797 m 25.81434,-0.3797 c 2.47139,0.20751 2.35373,0.86004 2.63796,1.14012 1.1499,1.13312 2.01686,2.03107 3.58009,3.60612 m -29.206,-4.55639 -0.37685,0.3797 m 8.85601,-0.3797 h 0.18843 m 8.10231,1.8985 -1.31898,-1.8985 m 4.14537,0 0.18842,0.3797 m 0.56528,1.8985 h 0.7537 l -0.56527,0.75939 c -0.16405,-0.45094 -0.53532,-1.61423 -2.26111,-0.75939 l 0.56527,0.75939 c -1.06165,0.44394 -1.51384,0.47891 -2.82638,1.5188 l -0.75371,-0.7594 c 2.53666,-2.49923 -0.26158,-2.83604 -0.18842,-3.60714 m 8.85601,0 4.71065,4.93609 m -32.40924,-4.74624 c 0.14045,0.20004 0.81924,2.14047 2.07268,0.7594 m 10.17499,-0.7594 0.59552,0.59972 0.35126,0.34865 c 1.63726,1.52292 1.46788,1.65455 3.9523,3.22832 0.37391,-2.14322 -1.259,-2.21734 -1.88426,-2.84774 l -0.37685,0.3797 1.88425,1.89849 m 2.82639,-1.70864 -1.13055,-1.8985 m 5.08749,0 c 0.68614,0.60724 0.90987,0.69349 1.50741,0.56955 l -0.7537,0.94925 m -30.71341,-1.32895 0.56528,-0.18985 m 4.14536,0.18985 v 1.1391 l -0.7537,-0.56955 m 5.0875,-0.56955 -0.56528,0.56955 m 6.78333,-0.3797 0.37685,-0.18985 m 6.02963,3.98684 -0.75371,0.75939 c -1.42578,-1.43656 -1.77927,-1.8585 -2.07268,-2.27819 l 0.7537,-0.3797 -1.69583,-1.89849 c 0.37095,0.15279 1.13374,0.76231 2.07268,1.70865 0.60587,0.61063 1.06946,2.48206 2.63797,1.70864 m 3.20324,-1.70864 -1.31899,-1.8985 m 5.65278,0 c -0.15974,0.68892 -0.008,1.01048 0.7537,0.94925 v 0 m -0.37685,-0.94925 h 0.7537 m -25.81433,0.18985 c 0.2463,0.53216 1.01134,2.07112 2.26111,1.5188 v -0.3797 m 7.53703,-1.1391 c 2.66914,1.8119 3.13231,1.44741 3.76852,2.08834 m -3.01482,-2.08834 h 0.18843 m 7.34861,0.18985 c -0.79871,1.39785 0.67409,1.6283 1.31898,2.27819 l 0.56527,-0.56955 -1.31898,-1.89849 m 4.71065,0 0.94213,0.56955 m -0.56528,-0.56955 -0.18843,0.18985 m 0.56528,-0.18985 0.18843,0.18985 m 2.82639,0.56955 v 0.7594 c -0.0423,-0.59203 0.0704,-0.78911 0.7537,-1.5188 2.28214,2.29941 2.0692,3.50294 5.0875,4.74623 m -38.81572,-4.55638 -1.31898,1.32895 m 13.37823,-1.32895 c 0.22642,0.32144 0.57789,0.46467 0.18842,1.32895 0.59119,0.35883 0.67601,0.37328 1.31899,0.18985 l 2.07268,2.27819 -0.7537,0.75939 c -1.09983,-1.10814 -1.09449,-1.82537 -2.63797,-2.32711 -0.55848,-0.18155 -0.86094,0.24095 -1.69583,-0.14093 m 4.3338,-2.08834 -0.56528,0.3797 m 2.82639,-0.18985 c 0.58195,0.58636 0.93329,0.94035 2.07268,2.08834 m 4.52222,-2.08834 1.69583,1.70864 m 6.78333,-1.70864 c 0.62361,0.60149 0.65954,0.61974 1.13056,0.94925 m -0.75371,-0.94925 h 0.37686 m -19.40786,0.18985 0.18842,0.18985 m 2.82639,-0.18985 c 0.28924,0.2914 0.76774,0.84071 1.88426,1.81792 0.87461,0.76551 1.36507,1.01289 2.44867,2.73846 0.98189,1.56361 1.38069,1.58008 1.69669,1.8985 1.2212,1.23049 2.90457,2.92648 4.3338,4.36653 -0.69139,0.32963 -1.1525,0.59645 -2.26111,0.83454 -1.50039,0.32224 -3.11365,0.59942 -4.52222,0.8741 -1.02017,0.19894 -1.59324,0.2846 -2.07268,0.36447 -1.10129,0.18344 -1.86451,0.32389 -3.39167,0.53117 -1.38258,0.18764 -2.50229,0.43763 -3.39166,-0.13624 m 13.75508,-11.58081 c -1.83219,0.80974 -2.11144,-0.82544 -2.26111,-1.70864 h 0.56528 m 4.89907,0 0.7537,0.56955 m 0.94213,-0.56955 -0.37685,0.3797 m -14.88564,0.3797 1.31898,-0.7594 m 16.0162,0.18985 h 0.56527 m -27.51017,0.18985 c 1.5861,1.59809 4.01909,5.75807 6.21806,7.97367 1.59136,-1.6034 2.19192,-2.91723 0.56527,-4.55638 -0.28006,-0.28223 -0.97708,-0.93868 -1.80429,-1.8985 -0.50665,-0.58785 -1.30856,-1.42696 -1.39895,-1.51879 m 3.58009,0 v 0.18985 m -0.56527,0 -0.56528,0.3797 m 0.56528,-0.3797 0.37685,0.3797 -0.56528,0.56954 m 2.44954,-0.94924 h 0.18842 m 7.16018,0.18985 h 0.37686 m 10.92869,-0.18985 h 0.37686 m -2.44954,0.18985 0.37685,0.75939 m 2.44954,-0.75939 c 1.06716,1.07522 2.14244,2.12412 3.20164,3.22743 0.25938,0.27019 1.70657,0.49353 0.19002,2.2782 -2.51349,-2.53249 -1.89854,-1.91285 -5.0875,-5.12593 m -11.11712,0 1.88426,1.70864 m 4.89907,-1.89849 -0.37685,0.18985 m 0.56528,0.37969 1.31898,-0.56954 m 1.13055,0.18985 -0.56528,0.37969 m 2.82639,-0.56954 h 0.37685 v 0.37969 h -0.56527 m -11.68241,-0.18984 1.13056,2.27819 m 8.47916,-2.27819 c 0.25758,0.22558 0.33342,0.64776 1.31898,0.56954 m -20.34999,-0.18985 0.56528,-0.18985 m 21.10369,0 c 1.4139,1.42459 2.37312,2.39102 4.52222,4.55639 m -29.58285,-4.36654 -0.18843,0.94925 m 5.46435,-0.94925 v 0.56955 m 13.37824,-0.56955 h 0.18842 m -19.97314,0.18985 -1.69583,0.3797 m 6.21805,-0.3797 -0.18842,0.18985 m 13.94351,-0.18985 0.18842,0.18985 m -6.5949,0 -1.69583,0.7594 m 12.81295,-0.7594 c 0.27516,0.23771 0.4675,0.84597 1.50741,0.3797 v 0 m -1.88426,-0.18985 c -0.70234,1.25247 0.37183,1.69745 0.56629,1.89849 1.14876,1.18761 2.61921,2.64 3.76751,3.79699 -3.78164,2.90772 -5.59223,2.49136 -6.59491,1.51703 -1.06609,-1.03594 -2.48486,-2.49653 -3.39151,-3.41552 -0.18361,-0.1861 -0.85685,-1.14775 -1.88441,-1.8985 m -10.36342,-1.70864 v 0.3797 m 13.37823,-0.3797 c 0.17841,1.33669 0.59118,1.51096 0.94213,1.89849 l -0.56528,-1.32894 m -6.97175,-0.3797 c 0.21956,0.22864 0.83745,0.79917 1.31898,2.27819 0.32263,-0.16743 0.40456,-0.26592 1.31898,-0.3797 m 5.65278,-1.13909 c -0.72342,-0.17543 -0.68935,-0.40297 -0.75371,-0.7594 h 0.37685 m -10.17499,0.7594 0.7537,-0.56955 m 7.72546,0.18985 0.37685,0.3797 m 3.20324,-0.3797 c 1.70308,2.43598 3.50041,3.71668 5.0875,5.31578 m -2.44954,-5.31578 c 0.69225,1.49562 2.11533,2.56744 3.01482,3.41084 0.41664,0.39066 0.46573,1.7037 3.20324,0.006 m -13.94352,-3.03759 c 0.65013,2.0227 0.91411,2.05288 1.31971,2.46804 1.23374,1.26279 3.13105,3.15542 4.33307,4.36653 m -4.89907,-6.83457 c 1.65308,0.8727 1.5477,1.52505 1.64116,1.89849 0.44643,1.78387 2.80023,3.33584 4.01161,4.55638 m -2.07268,-6.26502 c 1.1728,2.53388 2.66188,3.06166 4.89907,5.31578 m -9.98657,-5.12593 0.37685,0.37969 m 0.75371,-0.37969 h 0.37685 m 2.44953,0 -0.18842,0.18985 m -2.07269,0 1.31898,1.51879 m -2.44953,-1.32895 0.18842,0.18985 m -7.72545,0 -1.13056,1.5188 m 7.34861,-1.5188 c 1.32259,1.33259 1.60552,1.61765 1.88426,1.8985 1.24064,1.25001 2.61627,3.50381 4.71064,4.36653 m -48.613824,-6.07477 c 1.40182,0.86912 3.415288,1.01172 4.899072,1.5188 m 41.453682,-1.5188 -0.18842,0.18985 m 13.37823,0 -0.94213,0.56955 m -18.46573,-0.3797 c 0.27005,0.29777 0.401,0.38409 1.13055,0 3.32351,4.39498 2.54929,2.75836 6.02963,6.26503 m -6.40648,-5.88533 c 2.1378,2.15397 2.62619,2.64598 6.02963,6.07518 m 8.29074,-3.98684 -0.94213,0.56955 m -47.294888,0 c 1.245722,0.69574 3.84894,1.0549 4.899071,1.1391 m 20.349997,-0.56955 c -9.8e-4,1.26429 -0.30975,2.02071 -3.01482,4.74623 m -14.885641,-2.27819 c 0.257251,0.34327 0.332321,0.89071 1.884261,1.1391"
       id="path1" /></g></svg>
